<?xml version="1.0" encoding="UTF-8"?>
<svg viewBox="0 0 100 20" fill="none" xmlns="http://www.w3.org/2000/svg" aria-label="Exxeta">
  <!-- Exxeta full wordmark (white, extracted from official site) -->
  <path
    d="M52.154 3.94721C49.73 3.94721 47.97 5.50719 47.654 7.92397L56.77 7.92397C56.334 5.50916 54.576 3.94721 52.154 3.94721ZM47.538 11.2192C47.654 14.0083 49.692 15.7652 52.154 15.7652C54.5 15.7652 56.058 14.7449 56.924 12.8856L60.924 14.1737C59.5 17.7723 56.124 19.8562 52.154 19.8562C46.736 19.8562 42.73 15.8401 42.73 9.81091C42.73 4.20524 46.73 0 52.154 0C57.578 0 61.5 4.14418 61.5 9.78137V11.2192L47.538 11.2192ZM76.23 13.1515C75.442 15.2117 74.116 15.7652 72.616 15.7652C70.73 15.7652 69.23 14.6799 69.23 12.3183V7.19716L77.73 7.19716V3.4548L69.23 3.4548V0.386055L64.692 0.386055V3.4548H62.77V7.19716L64.692 7.19716V12.4325C64.692 16.6752 67.116 19.8562 72.492 19.8562C75.876 19.8562 78.722 18.1899 79.954 14.6661L76.23 13.1515ZM36.116 12.7733C36.1108 12.7736 36.1057 12.7728 36.1008 12.771C36.096 12.7693 36.0916 12.7666 36.0878 12.7631C36.0841 12.7595 36.0811 12.7553 36.0791 12.7507C36.077 12.746 36.076 12.741 36.076 12.7359C37.538 10.7268 38.692 9.55289 40.462 9.55289V5.49931C37 5.49931 34.8 7.62064 33.116 9.81879L30.846 7.58322C33.09 5.91688 35.2 3.81721 35.2 0.386055L31.038 0.386055C31.038 2.27497 29.884 3.4548 28.038 4.89462L26.116 2.9998C25.4628 2.27618 25.0822 1.35331 25.038 0.386055L20.838 0.386055C20.838 2.73587 22.108 4.81781 23.184 5.87946L24.53 7.20504C22.376 8.83396 20.416 10.9159 20.416 14.2131H24.53C24.53 12.4601 25.582 11.2862 27.416 9.97045L30.722 13.1889C29.416 14.932 28.222 15.9464 26.454 15.9464V20C29.8 20 31.954 18.182 33.654 16.0981C35.192 17.727 37.692 20 40.654 20V15.9622C39.116 15.9622 37.076 13.7955 36.116 12.7733ZM90.384 15.7652C93.326 15.7652 95.384 13.4646 95.384 9.89364C95.384 6.5452 93.308 4.02206 90.384 4.02206C87.46 4.02206 85.424 6.58263 85.424 9.89364C85.424 13.4253 87.47 15.7652 90.384 15.7652ZM95.77 19.4012V17.2346H95.616C94.692 18.8261 92.23 19.8483 89.73 19.8483C84 19.8483 80.5 15.6057 80.5 9.92318C80.5 4.32539 84.424 0.00787867 89.8 0.00787867C92.838 0.00787867 94.646 1.21922 95.6 2.62163H95.754V0.454993L100 0.454993V19.4012L95.77 19.4012ZM9.424 3.94721C7 3.94721 5.24 5.50719 4.924 7.92397L14.038 7.92397C13.6 5.50916 11.846 3.94721 9.424 3.94721ZM4.8 11.2192C4.924 14.0083 6.962 15.7652 9.424 15.7652C11.77 15.7652 13.328 14.7449 14.2 12.8856L18.2 14.1737C16.778 17.7723 13.4 19.8562 9.432 19.8562C4 19.8562 0 15.8401 0 9.81879C0 4.25054 4 0.00787867 9.424 0.00787867C14.848 0.00787867 18.77 4.17372 18.77 9.78137L18.77 11.2192L4.8 11.2192Z"
    fill="white"
  />
</svg>
