<?xml version="1.0" encoding="UTF-8"?>
<svg viewBox="0 0 32 32" fill="none" xmlns="http://www.w3.org/2000/svg">
  <rect width="32" height="32" fill="#000000"/>
  <!-- Exxeta X-mark scaled to 32×32 with padding -->
  <g transform="translate(1.5, 2) scale(1.00)">
    <path
      d="M22.4973 17.6835C22.4899 17.6839 22.4825 17.6828 22.4756 17.6802C22.4686 17.6777 22.4623 17.6739 22.4569 17.6689C22.4515 17.6639 22.4473 17.6578 22.4444 17.6512C22.4414 17.6445 22.44 17.6373 22.44 17.63C24.5349 14.762 26.1886 13.0862 28.7249 13.0862V7.29946C23.764 7.29946 20.6115 10.3278 18.1984 13.4658L14.9456 10.2744C18.1612 7.89556 21.1847 4.89817 21.1847 0L15.2208 0C15.2208 2.69653 13.5671 4.3808 10.9219 6.43623L8.1678 3.73127C7.23177 2.69827 6.68635 1.38082 6.62308 0L0.604705 0C0.604705 3.35449 2.42455 6.32657 3.9664 7.84214L5.89515 9.73449C2.80858 12.0599 0 15.0319 0 19.7389H5.89515C5.89515 17.2364 7.40261 15.5606 10.0306 13.6823L14.768 18.2768C12.8965 20.7652 11.1856 22.2133 8.65214 22.2133V28C13.4468 28 16.5334 25.4047 18.9694 22.4298C21.1732 24.7552 24.7556 28 29 28V22.2358C26.7961 22.2358 23.8729 19.1428 22.4973 17.6835Z"
      fill="white"
    />
  </g>
</svg>
